<svg id="Flat" height="512" viewBox="0 0 512 512" width="512" xmlns="http://www.w3.org/2000/svg"><path d="m472 376h-24a8 8 0 0 1 -8-8v-80a8 8 0 0 1 8-8h24a24.028 24.028 0 0 1 24 24v48a24.028 24.028 0 0 1 -24 24zm-16-16h16a8.009 8.009 0 0 0 8-8v-48a8.009 8.009 0 0 0 -8-8h-16z" fill="#931237"/><path d="m56 72h352a16 16 0 0 1 16 16v288a0 0 0 0 1 0 0h-384a0 0 0 0 1 0 0v-288a16 16 0 0 1 16-16z" fill="#757c80"/><path d="m72 104h320v224h-320z" fill="#fae8d8"/><path d="m24 360h416a0 0 0 0 1 0 0v32a32 32 0 0 1 -32 32h-352a32 32 0 0 1 -32-32v-32a0 0 0 0 1 0 0z" fill="#b5b8b9"/><path d="m456 264v112a32 32 0 0 1 -32 32v16h-64v-16a32 32 0 0 1 -32-32v-112z" fill="#b01641"/><path d="m72 104h320v64h-320z" fill="#2b70a8"/><circle cx="104" cy="136" fill="#b01641" r="8"/><circle cx="136" cy="136" fill="#fcb442" r="8"/><circle cx="168" cy="136" fill="#8e9c4c" r="8"/><path d="m104 200h112v96h-112z" fill="#fcb442"/><g fill="#e2d2c2"><path d="m360 208h-112a8 8 0 0 1 0-16h112a8 8 0 0 1 0 16z"/><path d="m312 240h-64a8 8 0 0 1 0-16h64a8 8 0 0 1 0 16z"/><path d="m360 240h-16a8 8 0 0 1 0-16h16a8 8 0 0 1 0 16z"/><path d="m296 272h-48a8 8 0 0 1 0-16h48a8 8 0 0 1 0 16z"/></g><path d="m200 360h64a0 0 0 0 1 0 0v16a16 16 0 0 1 -16 16h-32a16 16 0 0 1 -16-16v-16a0 0 0 0 1 0 0z" fill="#99a2a7"/><path d="m312 408h160a0 0 0 0 1 0 0v16a16 16 0 0 1 -16 16h-128a16 16 0 0 1 -16-16v-16a0 0 0 0 1 0 0z" fill="#931237"/></svg>