<?xml version="1.0" encoding="utf-8"?>
<!-- Generator: Adobe Illustrator 24.0.1, SVG Export Plug-In . SVG Version: 6.00 Build 0)  -->
<svg version="1.1" id="Capa_1" xmlns="http://www.w3.org/2000/svg" xmlns:xlink="http://www.w3.org/1999/xlink" x="0px" y="0px"
	 viewBox="0 0 577.91 225.01" style="enable-background:new 0 0 577.91 225.01;" xml:space="preserve">
<style type="text/css">
	.st0{fill:#D4DBF5;}
	.st1{fill:#FFFFFF;}
	.st2{fill:#E9EAEA;}
</style>
<g>
	<path class="st0" d="M224.22,46.85h5.03l28.82,43.83c3.73,5.64,7.2,11.72,7.2,11.72h0.17V46.85h4.34v62.05h-4.77l-28.47-42.87
		c-3.47-5.21-7.81-12.41-7.81-12.41h-0.17v55.28h-4.34V46.85z"/>
	<path class="st0" d="M277.33,86.52c0-13.54,7.55-23.43,20.14-23.43c12.67,0,20.13,9.89,20.13,23.43c0,13.54-7.46,23.52-20.13,23.52
		C284.88,110.04,277.33,100.06,277.33,86.52z M313.26,86.52c0-10.94-5.47-19.87-15.8-19.87c-10.33,0-15.8,8.94-15.8,19.87
		c0,10.94,5.47,19.88,15.8,19.88C307.79,106.39,313.26,97.45,313.26,86.52z"/>
	<path class="st0" d="M324.19,113.86h4.25c1.21,5.38,6.51,7.64,12.84,7.64c10.42,0,14.76-5.82,14.76-13.8v-7.64h-0.26
		c-3.3,5.55-7.81,8.42-14.84,8.42c-11.98,0-19.01-9.11-19.01-22.48c0-14.93,8.85-22.91,19.27-22.91c7.2,0,11.63,3.47,14.58,8.68
		h0.26v-7.72h4.25v43.57c0,5.12-1.56,9.29-4.43,12.32c-3.39,3.39-7.98,5.21-14.41,5.21C330.79,125.14,324.88,119.93,324.19,113.86z
		 M356.39,86.08c0-11.11-5.03-19.35-15.02-19.35c-9.2,0-15.1,7.64-15.1,19.35c0,10.59,4.69,18.83,14.84,18.83
		C350.83,104.92,356.39,97.71,356.39,86.08z"/>
	<path class="st0" d="M397.43,103.53v-1.56h-0.26c-2.52,3.56-7.03,8.07-16.23,8.07c-8.24,0-14.32-4.25-14.32-12.5
		c0-10.67,8.33-12.84,17.7-13.8c10.59-1.04,13.02-1.56,13.02-5.73v-1.56c0-6.77-3.99-9.72-11.28-9.72
		c-8.42,0-12.93,3.47-13.54,10.07h-4.34c0.87-8.68,6.68-13.71,17.88-13.71c9.98,0,15.53,4.43,15.53,13.63v26.38
		c0,2.43,1.3,3.12,2.86,3.12c0.61,0,1.3-0.17,2.08-0.43h0.26v3.12c-0.7,0.35-1.74,0.7-3.47,0.7
		C399.86,109.6,397.43,107.69,397.43,103.53z M397.35,92.94v-8.33c-3.12,1.56-7.9,2.17-12.5,2.69c-7.9,0.87-13.89,1.91-13.89,10.41
		c0,6.34,4.69,8.77,10.42,8.77C391.53,106.48,397.35,99.71,397.35,92.94z"/>
	<path class="st0" d="M411.92,46.85h4.25v62.05h-4.25V46.85z"/>
</g>
<g>
	<path class="st1" d="M216.34,159.3c0-18.49,12.06-32.46,30.55-32.46c7.2,0,13.28,2.08,17.7,5.47c5.38,4.08,8.51,10.15,9.29,17.1
		h-15.36c-0.78-5.55-5.12-9.81-11.72-9.81c-10.07,0-14.84,8.42-14.84,19.7c0,11.37,5.73,19.61,14.93,19.61
		c6.86,0,11.37-4.34,12.06-10.33h15.36c-0.43,6.16-3.21,11.8-7.46,15.88c-4.77,4.6-11.11,7.03-19.87,7.03
		C228.75,191.5,216.34,177.87,216.34,159.3z"/>
	<path class="st1" d="M277.78,167.98c0-13.37,9.55-23.52,23.78-23.52c14.32,0,23.69,10.15,23.69,23.52
		c0,13.36-9.37,23.52-23.69,23.52C287.32,191.5,277.78,181.34,277.78,167.98z M310.93,167.98c0-8.07-3.3-13.54-9.46-13.54
		c-6.16,0-9.37,5.47-9.37,13.54c0,8.07,3.21,13.45,9.37,13.45C307.63,181.43,310.93,176.05,310.93,167.98z"/>
	<path class="st1" d="M330.02,145.67h13.63v6.07h0.26c3.3-4.77,7.55-7.38,13.71-7.38c9.72,0,15.45,6.94,15.45,16.84v28.9h-14.15
		v-26.04c0-4.69-2.34-7.9-6.94-7.9c-4.69,0-7.81,3.91-7.81,9.37v24.56h-14.15V145.67z"/>
	<path class="st1" d="M377.48,167.8c0-13.28,9.29-23.43,22.83-23.43c6.33,0,11.37,2.08,15.19,5.55c5.29,4.86,7.9,12.58,7.81,21.61
		h-31.94c0.87,5.99,4.17,9.72,9.98,9.72c3.73,0,6.16-1.65,7.38-4.43h13.8c-0.96,3.99-3.56,7.81-7.46,10.5
		c-3.73,2.6-8.24,4.08-13.89,4.08C386.51,191.41,377.48,181.26,377.48,167.8z M408.99,163.12c-0.52-5.29-3.82-8.68-8.42-8.68
		c-5.38,0-8.16,3.39-9.11,8.68H408.99z"/>
	<path class="st1" d="M426.08,167.98c0-13.37,9.2-23.52,23.26-23.52c12.06,0,19.79,7.03,21.09,17.01H456.8
		c-0.87-3.99-3.3-6.6-7.29-6.6c-6.08,0-9.11,5.03-9.11,13.11c0,7.9,3.04,12.93,9.11,12.93c4.43,0,7.12-2.6,7.73-7.64h13.54
		c-0.35,10.24-8.51,18.23-21.09,18.23C435.36,191.5,426.08,181.34,426.08,167.98z"/>
	<path class="st1" d="M478.75,178.39v-23.87h-5.9v-8.85h5.9v-14.06h13.8v14.06h8.07v8.85h-8.07v20.83c0,3.47,1.91,4.34,4.95,4.34
		c1.21,0,2.6-0.09,3.12-0.09v10.33c-1.21,0.35-3.91,0.69-7.72,0.69C484.65,190.63,478.75,187.94,478.75,178.39z"/>
	<path class="st1" d="M504.52,177.7c0-9.81,7.81-12.76,17.01-13.97c8.33-1.04,11.28-1.91,11.28-4.95c0-2.86-1.82-4.77-6.08-4.77
		c-4.51,0-6.77,2-7.2,5.73h-13.02c0.35-8.24,6.68-15.27,20.13-15.27c6.68,0,11.2,1.21,14.41,3.64c3.82,2.78,5.64,7.12,5.64,12.67
		v22.39c0,3.56,0.35,5.55,1.56,6.33v0.61h-13.71c-0.69-0.96-1.13-2.69-1.48-4.95h-0.17c-2.61,3.73-6.51,6.08-13.19,6.08
		C510.86,191.24,504.52,186.46,504.52,177.7z M533.16,174.23v-5.29c-1.82,0.95-4.42,1.65-7.29,2.34c-5.47,1.21-7.73,2.6-7.73,5.99
		c0,3.56,2.6,4.95,6.08,4.95C529.52,182.21,533.16,179,533.16,174.23z"/>
</g>
<g>
	<g>
		<polygon class="st2" points="126.26,173.87 126.26,52.74 47.86,131.14 47.01,130.3 127.46,49.86 127.46,170.78 164.25,130.32 
			165.13,131.12 		"/>
	</g>
	<g>
		<circle class="st1" cx="85.27" cy="172.33" r="17.78"/>
		<circle class="st1" cx="47.43" cy="130.72" r="17.78"/>
		<circle class="st1" cx="164.69" cy="92.9" r="17.78"/>
		<circle class="st1" cx="126.86" cy="51.3" r="17.78"/>
		<circle class="st0" cx="126.86" cy="92.9" r="13.65"/>
		<circle class="st0" cx="85.27" cy="130.72" r="13.65"/>
		<circle class="st1" cx="126.86" cy="130.72" r="13.65"/>
		<circle class="st1" cx="85.27" cy="92.9" r="13.65"/>
		<circle class="st0" cx="85.27" cy="51.3" r="9.65"/>
		<circle class="st1" cx="164.69" cy="130.72" r="9.65"/>
		<circle class="st0" cx="126.86" cy="172.33" r="9.65"/>
		<circle class="st1" cx="43.67" cy="92.9" r="9.65"/>
	</g>
</g>
</svg>
