<?xml version="1.0" encoding="utf-8"?>
<!-- Generator: Adobe Illustrator 22.1.0, SVG Export Plug-In . SVG Version: 6.00 Build 0)  -->
<svg version="1.1" id="Capa_1" xmlns="http://www.w3.org/2000/svg" xmlns:xlink="http://www.w3.org/1999/xlink" x="0px" y="0px"
	 viewBox="0 0 200 200" style="enable-background:new 0 0 200 200;" xml:space="preserve">
<style type="text/css">
	.st0{fill:#FFFFFF;}
	.st1{font-family:'OpenSans-Bold';}
	.st2{font-size:22.196px;}
</style>
<g>
	<g>
		<path class="st0" d="M61.8,168.7H37.3c-13.2,0-23.9-10.7-23.9-23.9v-26.6c0-1.7,1.3-3,3-3c1.7,0,3,1.3,3,3v26.6
			c0,9.9,8,17.9,17.9,17.9h24.5c1.7,0,3,1.3,3,3S63.5,168.7,61.8,168.7z"/>
	</g>
	<g>
		<path class="st0" d="M162.7,168.7h-24.5c-1.7,0-3-1.3-3-3s1.3-3,3-3h24.5c9.9,0,17.9-8,17.9-17.9v-26.6c0-1.7,1.3-3,3-3s3,1.3,3,3
			v26.6C186.6,158,175.9,168.7,162.7,168.7z"/>
	</g>
	<g>
		<path class="st0" d="M183.6,53.1c-1.7,0-3-1.3-3-3V23.6c0-9.9-8-17.9-17.9-17.9h-24.5c-1.7,0-3-1.3-3-3s1.3-3,3-3h24.5
			c13.2,0,23.9,10.7,23.9,23.9v26.6C186.6,51.8,185.3,53.1,183.6,53.1z"/>
	</g>
	<g>
		<path class="st0" d="M16.4,53.1c-1.7,0-3-1.3-3-3V23.6c0-13.2,10.7-23.9,23.9-23.9h24.5c1.7,0,3,1.3,3,3s-1.3,3-3,3H37.3
			c-9.9,0-17.9,8-17.9,17.9v26.6C19.4,51.8,18,53.1,16.4,53.1z"/>
	</g>
	<g>
		<path class="st0" d="M63.9,77.9c-1.7,0-3-1.3-3-3V54.3c0-1.7,1.3-3,3-3c1.7,0,3,1.3,3,3v20.6C66.9,76.6,65.5,77.9,63.9,77.9z"/>
	</g>
	<g>
		<path class="st0" d="M138.2,78.9c-1.7,0-3-1.3-3-3V55.3c0-1.7,1.3-3,3-3s3,1.3,3,3v20.6C141.2,77.6,139.9,78.9,138.2,78.9z"/>
	</g>
	<g>
		<path class="st0" d="M95.5,102.7h-6.8c-1.7,0-3-1.3-3-3s1.3-3,3-3h6.8c2.5,0,4.6-2.1,4.6-4.6V54.3c0-1.7,1.3-3,3-3s3,1.3,3,3v37.8
			C106.1,97.9,101.3,102.7,95.5,102.7z"/>
	</g>
	<g>
		<path class="st0" d="M99.7,132.1c-12.2,0-23.5-4.5-29.8-11.9c-1.1-1.3-0.9-3.2,0.3-4.2c1.3-1.1,3.2-0.9,4.2,0.3
			c5.6,6.5,16,10.2,27.2,9.7c9.6-0.4,17.8-4,21.7-9.5c1-1.3,2.8-1.7,4.2-0.7c1.3,1,1.7,2.8,0.7,4.2c-5.1,7.1-14.7,11.5-26.3,12
			C101.2,132.1,100.4,132.1,99.7,132.1z"/>
	</g>
</g>
<text transform="matrix(1 0 0 1 13.4001 194.3369)" class="st0 st1 st2">Ingreso FACE-ID</text>
</svg>
