<svg id="Capa_1" enable-background="new 0 0 512.151 512.151" height="512" viewBox="0 0 512.151 512.151" width="512" xmlns="http://www.w3.org/2000/svg"><g><path d="m376 317.075h-120-152.662l-42.338 15c-15.48 18.215-28.002 38.461-37.63 60l112.63 120h120 165l9.897-87.116z" fill="#59abff"/><path d="m430.897 424.959-54.897-107.884h-120v195h165z" fill="#4d87ff"/><path d="m451 332.075-42.338-15c-3.021 0-35.683 0-32.662 0v30c0 8.276-6.724 15-15 15h-60c-24.814 0-45 20.186-45 45s20.186 45 45 45h60c8.276 0 15 6.724 15 15 0 24.814 20.186 45 45 45 4.484 0 95.339 0 91 0v-15c0-60.866-22.057-119.176-61-165z" fill="#79cc52"/><path d="m136 422.075h-17.563c-6.196-17.461-22.881-30-42.437-30h-52.63c-13.71 30.66-23.37 67.696-23.37 105v15h136c24.814 0 45-20.186 45-45s-20.186-45-45-45z" fill="#a0e65c"/><g><path d="m121 332.075h-60v-121h75v96.053z" fill="#e1e6f0"/><path d="m451 332.075h-60l-15-29.684v-91.316h75z" fill="#cfd7e6"/><path d="m241 .075h30v45h-30z" fill="#cfd7e6"/><path d="m256 .075h15v45h-15z" fill="#a3b1cc"/><path d="m331 106.075h-150c0-41.4 33.6-76 75-76s75 34.6 75 76z" fill="#e1e6f0"/><path d="m331 106.075h-75v-76c41.4 0 75 34.6 75 76z" fill="#cfd7e6"/><path d="m151 106.075h210v60h-210z" fill="#cfd7e6"/><path d="m256 106.075h105v60h-105z" fill="#a3b1cc"/><path d="m391 151.075v181h-60l-15-30-15 30h-30l-15-30-15 30h-30l-15-30-15 30h-60v-181z" fill="#f3f5f9"/><path d="m256 151.075h135v181h-60l-15-30-15 30h-30l-15-30z" fill="#e1e6f0"/><path d="m121 91.075h270v30h-270z" fill="#f3f5f9"/><path d="m256 91.075h135v30h-135z" fill="#e1e6f0"/><path d="m181 211.075h30v121h-30z" fill="#cfd7e6"/><path d="m301 211.075h30v121h-30z" fill="#a3b1cc"/><path d="m241 211.075h30v121h-30z" fill="#cfd7e6"/><path d="m256 211.075h15v121h-15z" fill="#a3b1cc"/></g></g></svg>