<svg id="Layer_1" enable-background="new 0 0 256 256" height="512" viewBox="0 0 256 256" width="512" xmlns="http://www.w3.org/2000/svg"><path d="m227.745 252h-157.568c-5.523 0-10-4.477-10-10v-228c0-5.523 4.477-10 10-10h157.569c5.523 0 10 4.477 10 10v228c-.001 5.523-4.478 10-10.001 10z" fill="#f4efed"/><path d="m227.745 4h-10c5.523 0 10 4.477 10 10v228c0 5.523-4.477 10-10 10h10c5.523 0 10-4.477 10-10v-228c0-5.523-4.477-10-10-10z" fill="#d6d1cf"/><path d="m70.177 252h10c-5.523 0-10-4.477-10-10v-228c0-5.523 4.477-10 10-10h-10c-5.523 0-10 4.477-10 10v228c0 5.523 4.477 10 10 10z" fill="#fff"/><path d="m170.58 168.898-17.106 3.381 3.381-17.106 46.754-46.754c3.79-3.79 9.935-3.79 13.725 0 3.79 3.79 3.79 9.935 0 13.725z" fill="#fcc24c"/><path d="m217.334 108.418c-3.79-3.79-9.935-3.79-13.725 0l-4.863 4.863 13.725 13.725 4.863-4.863c3.79-3.789 3.79-9.934 0-13.725z" fill="#ff4397"/><path d="m227.745 254h-157.568c-6.617 0-12-5.383-12-12v-228c0-6.617 5.383-12 12-12h157.568c6.617 0 12 5.383 12 12v228c0 6.617-5.383 12-12 12zm-157.568-248c-4.411 0-8 3.589-8 8v228c0 4.411 3.589 8 8 8h157.568c4.411 0 8-3.589 8-8v-228c0-4.411-3.589-8-8-8z" fill="#690589"/><path d="m68.177 46.892c-1.104 0-2-.896-2-2v-12c0-1.104.896-2 2-2s2 .896 2 2v12c0 1.104-.896 2-2 2z" fill="#690589"/><path d="m88.707 211.13-5.632-.009-12.263-.016c.012-.197 0-.392 0-.592v-19.321h-21.175v19.294c0 .2-.011.395 0 .592l-12.289-.016-5.632-.009c-7.406-.009-13.417 5.986-13.426 13.392l-.036 27.555h83.809l.035-27.443c.011-7.406-5.985-13.418-13.391-13.427z" fill="#7bac51"/><path d="m31.647 211.13 5.632-.009 7.315-.009v.016l-1.431.002c-7.406.009-13.402 6.021-13.392 13.426l.035 27.444h-11.516l-.035-27.444c-.01-7.405 5.986-13.417 13.392-13.426z" fill="#99ca6f"/><path d="m88.707 211.13-5.632-.009-7.315-.009v.016l1.431.002c7.406.009 13.402 6.021 13.392 13.426l-.036 27.444h11.517l.035-27.444c.009-7.405-5.986-13.417-13.392-13.426z" fill="#5d8e33"/><path d="m49.637 191.192h21.174v20.356c0 5.847-4.74 10.587-10.587 10.587-5.847 0-10.587-4.74-10.587-10.587z" fill="#ff9f70"/><path d="m60.225 224.136c-6.941 0-12.587-5.646-12.587-12.588v-20.355c0-1.104.896-2 2-2h21.174c1.104 0 2 .896 2 2v20.355c0 6.941-5.647 12.588-12.587 12.588zm-8.588-30.944v18.355c0 4.735 3.852 8.588 8.587 8.588s8.587-3.853 8.587-8.588v-18.355z" fill="#690589"/><path d="m102.064 254h-83.81c-.531 0-1.04-.211-1.415-.587-.375-.375-.585-.885-.585-1.416l.035-27.554c.011-8.489 6.923-15.39 15.411-15.39h.019l15.918.021v-17.883c0-1.104.896-2 2-2h21.174c1.104 0 2 .896 2 2v17.916l15.898.021c8.497.011 15.4 6.933 15.39 15.43l-.035 27.443c-.002 1.105-.897 1.999-2 1.999zm-81.807-4h79.81l.033-25.446c.008-6.291-5.104-11.416-11.395-11.424l-17.895-.024c-.551-.001-1.077-.229-1.454-.629-.377-.401-.573-.94-.54-1.489.005-.079.001-.156 0-.234l-.003-.239v-17.321h-17.176l-.003 17.53c-.001.082-.004.164 0 .246.03.549-.167 1.086-.545 1.485-.378.398-.903.624-1.452.624-.001 0-.001 0-.002 0l-17.921-.024c-.004 0-.01 0-.014 0-6.284 0-11.401 5.108-11.41 11.396z" fill="#690589"/><path d="m60.198 204.853c-11.797 0-21.36-9.687-21.36-21.638v-14.98c0-11.95 9.563-21.637 21.36-21.637 11.797 0 21.36 9.687 21.36 21.637v14.98c0 11.95-9.563 21.638-21.36 21.638z" fill="#ff9f70"/><g fill="#690589"><path d="m60.198 206.853c-12.881 0-23.36-10.604-23.36-23.638v-14.979c0-13.034 10.479-23.638 23.36-23.638s23.36 10.604 23.36 23.638v14.979c0 13.034-10.479 23.638-23.36 23.638zm0-58.255c-10.675 0-19.36 8.81-19.36 19.638v14.979c0 10.828 8.685 19.638 19.36 19.638s19.36-8.81 19.36-19.638v-14.979c0-10.829-8.684-19.638-19.36-19.638z"/><path d="m170.58 170.897c-.512 0-1.023-.195-1.414-.586l-13.726-13.725c-.781-.781-.781-2.047 0-2.828s2.047-.781 2.828 0l13.726 13.725c.781.781.781 2.047 0 2.828-.39.391-.902.586-1.414.586z"/><path d="m212.472 129.007c-.53 0-1.039-.211-1.414-.586l-13.726-13.726c-.781-.781-.781-2.047 0-2.828l4.863-4.863c4.562-4.564 11.99-4.564 16.553 0 4.563 4.564 4.563 11.99 0 16.554l-4.862 4.863c-.375.375-.884.586-1.414.586zm-10.898-15.726 10.897 10.897 3.448-3.449c3.004-3.004 3.004-7.893 0-10.897s-7.893-3.004-10.896 0z"/><path d="m153.474 174.278c-.525 0-1.035-.207-1.414-.586-.472-.472-.678-1.147-.548-1.802l3.381-17.105c.077-.389.268-.746.548-1.026l46.754-46.755c4.565-4.562 11.99-4.563 16.554 0s4.564 11.99 0 16.554l-46.754 46.754c-.28.28-.638.471-1.026.548l-17.106 3.381c-.131.025-.26.037-.389.037zm5.224-18.121-2.684 13.58 13.581-2.684 46.324-46.324c3.004-3.005 3.004-7.893 0-10.897-3.005-3.005-7.893-3.003-10.897 0zm11.882 12.74h.01z"/><path d="m164.213 163.539c-.512 0-1.023-.195-1.414-.586-.781-.781-.781-2.047 0-2.828l41.396-41.396c.781-.781 2.047-.781 2.828 0s.781 2.047 0 2.828l-41.396 41.396c-.391.391-.902.586-1.414.586z"/><path d="m216.431 29.198h-134.94c-1.104 0-2-.896-2-2s.896-2 2-2h134.939c1.104 0 2 .896 2 2s-.895 2-1.999 2z"/><path d="m216.431 58.215h-134.94c-1.104 0-2-.896-2-2s.896-2 2-2h134.939c1.104 0 2 .896 2 2s-.895 2-1.999 2z"/><path d="m216.431 87.23h-134.94c-1.104 0-2-.896-2-2s.896-2 2-2h134.939c1.104 0 2 .896 2 2s-.895 2-1.999 2z"/><path d="m186.431 116.247h-104.94c-1.104 0-2-.896-2-2s.896-2 2-2h104.939c1.104 0 2 .896 2 2s-.895 2-1.999 2z"/><path d="m156.431 145.263h-74.94c-1.104 0-2-.896-2-2s.896-2 2-2h74.939c1.104 0 2 .896 2 2s-.895 2-1.999 2z"/><path d="m152.967 174.278h-61.476c-1.104 0-2-.896-2-2s.896-2 2-2h61.476c1.104 0 2 .896 2 2s-.896 2-2 2z"/><path d="m216.431 203.295h-62.888c-1.104 0-2-.896-2-2s.896-2 2-2h62.888c1.104 0 2 .896 2 2s-.896 2-2 2z"/><path d="m216.431 232.311h-42.888c-1.104 0-2-.896-2-2s.896-2 2-2h42.888c1.104 0 2 .896 2 2s-.896 2-2 2z"/></g></svg>