<svg xmlns="http://www.w3.org/2000/svg" viewBox="0 0 200 200"><defs><style>.cls-1{fill:#2f2260;}</style></defs><title>Mock_Up_Nogal_Conecta_Iconos</title><g id="Capa_2" data-name="Capa 2"><path class="cls-1" d="M58.41,148.67a102.8,102.8,0,0,1,21.88-7.14c.8-.17,1.51-.32,2.17-.44a96.09,96.09,0,0,1,13.81-1.68V103.6H51.91A176,176,0,0,0,58.41,148.67Z"/><path class="cls-1" d="M145.45,43.69c.9-.44,1.79-.9,2.68-1.38l1.85-1A98.77,98.77,0,0,0,165,30.75,94.3,94.3,0,0,0,126,8.54,78.35,78.35,0,0,1,138.57,27,121.79,121.79,0,0,1,145.45,43.69Z"/><path class="cls-1" d="M88.21,5.67C80,9.87,72.49,18.43,66.29,30.77a113.15,113.15,0,0,0-5.76,13.76,96.13,96.13,0,0,0,21,7.15l2,.42a93.44,93.44,0,0,0,12.72,1.6V5l-.73,0C93.09,5.15,90.64,5.37,88.21,5.67Z"/><path class="cls-1" d="M81.5,148.32a96.13,96.13,0,0,0-21,7.15,113.13,113.13,0,0,0,5.75,13.76c6.21,12.34,13.76,20.9,21.93,25.1,2.43.3,4.88.52,7.31.63l.75,0V146.3a91.89,91.89,0,0,0-12.72,1.6C82.84,148,82.16,148.17,81.5,148.32Z"/><path class="cls-1" d="M80.28,58.47a102.15,102.15,0,0,1-21.87-7.28,175.19,175.19,0,0,0-6.5,45.32H96.27V60.59a96.41,96.41,0,0,1-13.82-1.68Z"/><path class="cls-1" d="M53,48.52c-1.19-.64-2.37-1.3-3.53-2-.62-.36-1.24-.73-1.92-1.15A105.13,105.13,0,0,1,32,33.62,94.09,94.09,0,0,0,5,96.51H46.1A181.3,181.3,0,0,1,53,48.52Z"/><path class="cls-1" d="M55.19,158.21c-.81.45-1.63.91-2.43,1.39l-1.82,1.1a97.48,97.48,0,0,0-14,10.55A94.61,94.61,0,0,0,74,191.47,78.44,78.44,0,0,1,61.43,173,121.16,121.16,0,0,1,55.19,158.21Z"/><path class="cls-1" d="M49.52,153.4c1.16-.69,2.33-1.42,3.52-2.05a180.91,180.91,0,0,1-6.93-47.75H5a94.54,94.54,0,0,0,26.91,62.72A103.62,103.62,0,0,1,47.6,154.58C48.25,154.18,48.9,153.75,49.52,153.4Z"/><path class="cls-1" d="M52.76,40.4c.81.48,1.62.94,2.43,1.39A121.16,121.16,0,0,1,61.43,27,78.17,78.17,0,0,1,74,8.55,94.56,94.56,0,0,0,37.05,28.84,98,98,0,0,0,50.94,39.3Z"/><path class="cls-1" d="M147.5,149.44c1.24.6,2.46,1.36,3.68,2,.7.38,1.34.73,1.95,1.08A103.45,103.45,0,0,1,170,164.27a93.83,93.83,0,0,0,25-60.67H153.89A181.62,181.62,0,0,1,147.5,149.44Z"/><path class="cls-1" d="M118.67,52.47a96,96,0,0,0,21.38-6.28,115.24,115.24,0,0,0-6.34-15.42c-6.2-12.34-13.81-20.9-22-25.1-2.43-.3-5-.52-7.38-.63l-1,0V53.86a98.85,98.85,0,0,0,13.14-1C117.23,52.7,118,52.59,118.67,52.47Z"/><path class="cls-1" d="M148.14,157.69c-.89-.48-1.79-.94-2.69-1.39a121.41,121.41,0,0,1-6.88,16.7A78.44,78.44,0,0,1,126,191.47a94.79,94.79,0,0,0,39.17-22.12A97.3,97.3,0,0,0,150,158.71Z"/><path class="cls-1" d="M153.13,47.47l-1.95,1.08c-1.22.65-2.44,1.27-3.68,1.87a185.88,185.88,0,0,1,6.4,46.09H195a94.87,94.87,0,0,0-25.07-60.84A104.13,104.13,0,0,1,153.13,47.47Z"/><path class="cls-1" d="M142,52.86a103.13,103.13,0,0,1-22.4,6.43c-.63.11-1.39.22-2.24.34a109.66,109.66,0,0,1-14,1.1V96.51h44.74A176.71,176.71,0,0,0,142,52.86Z"/><path class="cls-1" d="M119.7,140.64A103.27,103.27,0,0,1,142.07,147a177.28,177.28,0,0,0,6-43.4H103.35v35.67a111.69,111.69,0,0,1,14.05,1.06C118.24,140.46,119.07,140.53,119.7,140.64Z"/><path class="cls-1" d="M140,153.81a96.25,96.25,0,0,0-21.39-6.28c-.66-.12-1.4-.23-2.12-.34a99.14,99.14,0,0,0-13.15-1.05V195s.7,0,1,0c2.45-.11,5-.33,7.38-.63,8.18-4.2,15.78-12.76,22-25.1A115.19,115.19,0,0,0,140,153.81Z"/></g></svg>