<svg xmlns="http://www.w3.org/2000/svg" viewBox="0 0 200 200"><defs><style>.cls-1{fill:#2f2260;}</style></defs><title>Mock_Up_Nogal_Conecta_Iconos</title><g id="Capa_2" data-name="Capa 2"><path class="cls-1" d="M86,168.23A41,41,0,0,0,64.2,142.08a23.63,23.63,0,0,0,6.11-15.88v-8.9a23.75,23.75,0,0,0-47.5,0v8.9a23.64,23.64,0,0,0,6.12,15.89A41,41,0,0,0,7.09,168.23c-2,7.41-2.09,7.37-2.09,8.44C5,185,16.24,187.8,19.93,188.73c14.87,3.71,38.39,3.71,53.26,0,3.7-.93,14.94-3.74,14.94-12.06,0-1.06,0-.91-2.09-8.44Zm-51.35-42v-8.9a11.88,11.88,0,1,1,23.75,0v8.9a11.88,11.88,0,0,1-23.75,0ZM17.43,175.42l1.11-4.07a29.09,29.09,0,0,1,45.65-15.44c8.33,6.37,9.94,13.78,11.5,19.51-11.38,5.6-46.83,5.62-58.26,0Zm0,0"/><path class="cls-1" d="M194.79,175.11c-2.13-7.81-5.19-24.2-23.71-33a23.67,23.67,0,0,0,6.11-15.88v-8.9a23.75,23.75,0,0,0-47.5,0v8.9a23.68,23.68,0,0,0,6.11,15.89A41,41,0,0,0,114,168.23c-2,7.41-2.09,7.37-2.09,8.44,0,13.06,28.57,14.84,41.57,14.84S195,189.73,195,176.67a5.87,5.87,0,0,0-.21-1.56ZM141.56,126.2v-8.9a11.88,11.88,0,1,1,23.75,0v8.9a11.88,11.88,0,0,1-23.75,0Zm-17.25,49.22,1.11-4.07a29.09,29.09,0,0,1,45.65-15.44c8.32,6.37,9.93,13.78,11.5,19.51-11.38,5.6-46.84,5.62-58.26,0Zm0,0"/><path class="cls-1" d="M73.37,96.7c14.86,3.71,38.39,3.71,53.26,0,3.69-.93,14.93-3.74,14.93-12.06a5.81,5.81,0,0,0-.21-1.56c-2.13-7.81-5.19-24.2-23.71-33a23.67,23.67,0,0,0,6.11-15.88V25.26a23.75,23.75,0,0,0-47.5,0v8.91a23.64,23.64,0,0,0,6.12,15.89A41,41,0,0,0,60.53,76.2c-2,7.41-2.09,7.37-2.09,8.44,0,8.32,11.24,11.13,14.93,12.06ZM88.13,34.17V25.26a11.87,11.87,0,0,1,23.74,0v8.91a11.87,11.87,0,1,1-23.74,0ZM72,79.32a29.09,29.09,0,0,1,45.65-15.44c8.33,6.36,9.94,13.78,11.5,19.51-11.38,5.6-46.84,5.62-58.26,0Zm0,0"/><path class="cls-1" d="M114.84,144a5.94,5.94,0,0,0,3.71-10.57l-12.61-10.09v-12a5.94,5.94,0,0,0-11.88,0v12L81.45,133.44a5.94,5.94,0,0,0,7.42,9.27l11.13-8.9,11.13,8.9a5.91,5.91,0,0,0,3.71,1.3Zm0,0"/></g></svg>