<svg xmlns="http://www.w3.org/2000/svg" viewBox="0 0 200 200"><defs><style>.cls-1{fill:#2f2260;}</style></defs><title>Mock_Up_Nogal_Conecta_Iconos</title><g id="Capa_2" data-name="Capa 2"><path class="cls-1" d="M161.6,5H5V172.73A22.29,22.29,0,0,0,27.27,195H172.74A22.29,22.29,0,0,0,195,172.73V94.43H161.6ZM27.27,183.87a11.16,11.16,0,0,1-11.14-11.14V16.13H150.47v156.6a22.14,22.14,0,0,0,3,11.14Zm156.6-78.3v67.16a11.14,11.14,0,1,1-22.27,0V105.57Zm0,0"/><path class="cls-1" d="M27.27,72.17H139.34V27.27H27.27ZM38.4,38.4h89.8V61H38.4Zm0,0"/><rect class="cls-1" x="27.27" y="83.3" width="56.04" height="11.13"/><rect class="cls-1" x="94.43" y="83.3" width="44.9" height="11.13"/><rect class="cls-1" x="27.27" y="105.57" width="56.04" height="11.13"/><rect class="cls-1" x="94.43" y="105.57" width="44.9" height="11.13"/><rect class="cls-1" x="27.27" y="127.83" width="56.04" height="11.13"/><rect class="cls-1" x="27.27" y="150.1" width="56.04" height="11.13"/><path class="cls-1" d="M94.43,161.23h44.91v-33.4H94.43ZM105.57,139H128.2V150.1H105.57Zm0,0"/></g></svg>