<svg xmlns="http://www.w3.org/2000/svg" viewBox="0 0 200 200"><defs><style>.cls-1{fill:#2f2260;}</style></defs><title>Mock_Up_Nogal_Conecta_Iconos</title><g id="Capa_2" data-name="Capa 2"><path class="cls-1" d="M177.62,8.32A20.71,20.71,0,0,0,159.4,38.93l-34,34a27.45,27.45,0,0,0-33.83,0L65.11,46.39a13.54,13.54,0,0,0,2-7A13.83,13.83,0,1,0,53.25,53.22a13.66,13.66,0,0,0,7-2l26.49,26.5a27.47,27.47,0,0,0,0,33.84L43,155.36a20.46,20.46,0,1,0,4.32,5.44l44.31-44.33a27.34,27.34,0,0,0,13.47,5.61v35.1a20.73,20.73,0,1,0,6.9,0v-35.1a27.33,27.33,0,0,0,13.48-5.61L152,143a13.56,13.56,0,0,0-2,7,13.82,13.82,0,1,0,13.81-13.82,13.49,13.49,0,0,0-7,2l-26.5-26.5a27.43,27.43,0,0,0,0-33.84l33.38-33.38a20.71,20.71,0,1,0,13.9-36.06Zm0,0"/></g></svg>