<svg xmlns="http://www.w3.org/2000/svg" viewBox="0 0 37.49 18.27"><defs><style>.cls-1{fill:#fff;}</style></defs><g id="Capa_2" data-name="Capa 2"><g id="Capa_1-2" data-name="Capa 1"><path class="cls-1" d="M16,4.24A7.74,7.74,0,0,1,17,.56a.87.87,0,0,1,.64-.44,4.32,4.32,0,0,1,2,0,1.1,1.1,0,0,1,.81.63,7.81,7.81,0,0,1,.86,3.34,5.59,5.59,0,0,1-1,3.52A2.06,2.06,0,0,1,19,8.45a1.9,1.9,0,0,1-2-.84,5.08,5.08,0,0,1-1-2.59c0-.26,0-.53-.06-.78"/><path class="cls-1" d="M7.36,8.55c.67-.41,1.3-.82,2-1.19a2.9,2.9,0,0,1,3.45.21c.49.37,1,.76,1.46,1.1a4.66,4.66,0,0,0,2.47.78l-.38.42a2.81,2.81,0,0,1-4,.14A4.5,4.5,0,0,0,9.94,8.67c-.7-.1-1.42-.1-2.13-.14a3.62,3.62,0,0,0-.45,0"/><path class="cls-1" d="M20.58,9.44a5.37,5.37,0,0,0,3.48-1.52A4.1,4.1,0,0,1,25.49,7a2.82,2.82,0,0,1,2.32.25c.7.4,1.38.83,2.07,1.25H29.5c-.66,0-1.33,0-2,.1a3.88,3.88,0,0,0-2.19,1.07,3.91,3.91,0,0,1-1.45.94,2.89,2.89,0,0,1-3.29-1.21"/><path class="cls-1" d="M22.09.88a4.24,4.24,0,0,1,2.27,2.71,3.21,3.21,0,0,1-.62,2.69,5.45,5.45,0,0,1-3.47,2.07l-.19,0,0,0A5.15,5.15,0,0,0,22.53,5,6.35,6.35,0,0,0,22.09.88"/><path class="cls-1" d="M17.16,8.4A5.51,5.51,0,0,1,13.33,6a3.27,3.27,0,0,1,.32-4A6.32,6.32,0,0,1,15.14.85c-1.14,3-.74,5.6,2,7.55"/><path class="cls-1" d="M18.78,9.44a4.51,4.51,0,0,0,.52,0,.33.33,0,0,1,.38.24,2.57,2.57,0,0,1-.23,2.62.71.71,0,0,1-1.23,0,2.54,2.54,0,0,1-.3-2.83.26.26,0,0,1,.19-.09h.67Z"/><path class="cls-1" d="M1,17.07a.5.5,0,0,0-.5-.51.51.51,0,0,0,0,1,.5.5,0,0,0,.5-.51"/><path class="cls-1" d="M37.49,17.07a.51.51,0,1,0-.51.51.51.51,0,0,0,.51-.51"/><path class="cls-1" d="M4.08,18.17c-.45,0-1-.41-1-1.26s.46-1.18.91-1.18a1,1,0,0,1,.89.8H5v-.68H4.86s0,.07-.05.07A1.91,1.91,0,0,0,4,15.66,1.21,1.21,0,0,0,2.78,17,1.2,1.2,0,0,0,4,18.26a1.72,1.72,0,0,0,1-.3l0-.58H4.91a.85.85,0,0,1-.83.79"/><path class="cls-1" d="M3.75,15.73A1.14,1.14,0,0,0,3,16.91a1.16,1.16,0,0,0,1,1.3.86.86,0,0,0,.85-.72l0,.45a1.67,1.67,0,0,1-.91.28A1.17,1.17,0,0,1,2.82,17a1.16,1.16,0,0,1,.93-1.22m.58,0a2,2,0,0,1,.38.17l.1,0a.08.08,0,0,0,.08-.06h0v.54a1.09,1.09,0,0,0-.58-.69M4,15.66A1.21,1.21,0,0,0,2.78,17,1.21,1.21,0,0,0,4,18.27a1.73,1.73,0,0,0,1-.31l0-.58H4.92a.87.87,0,0,1-.84.79c-.45,0-1-.41-1-1.26s.46-1.18.91-1.18a1,1,0,0,1,.89.8H5v-.68h-.1s0,.07-.05.07A1.91,1.91,0,0,0,4,15.66"/><path class="cls-1" d="M12.4,16.86h0a.62.62,0,0,0,.43-.58c0-.45-.36-.57-.8-.57H10.94v0a.4.4,0,0,1,.17,0,.29.29,0,0,1,.19.22.61.61,0,0,1,0,.15v1.62a.54.54,0,0,1,0,.15.26.26,0,0,1-.07.15.5.5,0,0,1-.12.08l-.17,0v0h1.12c.55,0,.95-.26.95-.71,0-.27-.15-.53-.61-.64m-.76-.95c0-.13,0-.14.16-.14.46,0,.74.23.74.56a.53.53,0,0,1-.52.53,2.82,2.82,0,0,1-.39,0Zm.3,2.23c-.24,0-.31-.06-.31-.24V17c.59,0,1.06.12,1.06.61s-.3.58-.75.58"/><path class="cls-1" d="M12,15.74c.51,0,.75.17.75.53a.57.57,0,0,1-.4.54.09.09,0,0,0,0,.05,0,0,0,0,0,0,0c.48.11.58.39.58.6,0,.38-.32.63-.81.66a.61.61,0,0,0,.57-.6.54.54,0,0,0-.32-.52,1.31,1.31,0,0,0-.5-.12H12a.59.59,0,0,0,.56-.58.61.61,0,0,0-.57-.59h0m-.35,0c-.06,0-.08.07-.08.17l0,1s0,0,0,0h0l0,0v.95a.24.24,0,0,0,.18.27h-.61l.1-.08a.46.46,0,0,0,.09-.17s0-.09,0-.16V16.14c0-.07,0-.12,0-.15a.39.39,0,0,0-.09-.17.35.35,0,0,0-.1-.08h.52m.35,0H10.94v0a.4.4,0,0,1,.17,0,.29.29,0,0,1,.19.22.61.61,0,0,1,0,.15v1.62a.54.54,0,0,1,0,.15.26.26,0,0,1-.07.15.5.5,0,0,1-.12.08l-.17,0v0h1.12c.55,0,.95-.26.95-.71,0-.27-.15-.53-.61-.64h0a.62.62,0,0,0,.43-.58c0-.45-.36-.57-.8-.57m-.31,1.18h-.09v-1c0-.13,0-.14.16-.14.46,0,.74.23.74.56a.53.53,0,0,1-.52.53,1.67,1.67,0,0,1-.3,0m.22,1.26c-.24,0-.31-.06-.31-.24V17h0c.58,0,1,.13,1,.61s-.3.58-.75.58"/><path class="cls-1" d="M25.13,15.66a1.31,1.31,0,1,0,0,2.61,1.32,1.32,0,0,0,1.35-1.35,1.22,1.22,0,0,0-1.34-1.26m0,2.54a1.11,1.11,0,0,1-1-1.22c0-1,.64-1.26,1-1.26s1,.44,1,1.21-.35,1.27-1,1.27"/><path class="cls-1" d="M25.45,15.73a1.13,1.13,0,0,1,1,1.19,1.27,1.27,0,0,1-.93,1.26,1.28,1.28,0,0,0,.67-1.25,1.18,1.18,0,0,0-.71-1.2m-.66,0A1.3,1.3,0,0,0,24.08,17a1.19,1.19,0,0,0,.79,1.22,1.25,1.25,0,0,1-.08-2.46m.34-.08a1.31,1.31,0,1,0,0,2.61,1.32,1.32,0,0,0,1.35-1.35,1.22,1.22,0,0,0-1.34-1.26m0,2.54a1.11,1.11,0,0,1-1-1.22c0-1,.64-1.26,1-1.26s1,.44,1,1.21-.35,1.27-1,1.27"/><path class="cls-1" d="M29.33,17h-.44v.07h.34a1.29,1.29,0,0,1,0,.23c0,.15,0,.56,0,.61a1,1,0,0,1-.69.28,1.2,1.2,0,0,1-1.14-1.26,1.08,1.08,0,0,1,1-1.19,1,1,0,0,1,1,.79h.08c0-.21,0-.62,0-.67h-.08c0,.06,0,.07-.06.07a2.39,2.39,0,0,0-.95-.26,1.31,1.31,0,1,0,0,2.61,2.56,2.56,0,0,0,1.15-.34v-.7c0-.17,0-.17.2-.18V17h-.43"/><path class="cls-1" d="M28.16,15.72a1.17,1.17,0,0,0-.81,1.2,1.24,1.24,0,0,0,1.11,1.3h-.05a1.26,1.26,0,0,1-.25-2.5m.65,0a1.92,1.92,0,0,1,.39.16.36.36,0,0,0,.13.05.09.09,0,0,0,.09-.08h0v.59a1.12,1.12,0,0,0-.61-.72M29.33,17h.25s-.06.08-.06.2v.67a5.11,5.11,0,0,1-.55.23.92.92,0,0,0,.28-.2l0,0c0-.07,0-.51,0-.62a1.23,1.23,0,0,0,0-.23s0,0,0,0h.08m-.95-1.37A1.27,1.27,0,0,0,27.05,17a1.26,1.26,0,0,0,1.36,1.3,2.5,2.5,0,0,0,1.15-.33v-.7c0-.17,0-.17.2-.18V17h-.87v.07h.34a1.29,1.29,0,0,1,0,.23c0,.15,0,.56,0,.61a1,1,0,0,1-.69.28,1.2,1.2,0,0,1-1.14-1.26,1.08,1.08,0,0,1,1-1.19,1,1,0,0,1,1,.79h.07c0-.21,0-.62,0-.67h-.08c0,.06,0,.07-.06.07a2.39,2.39,0,0,0-.95-.26"/><path class="cls-1" d="M10.31,15.72H9.77v0a.38.38,0,0,1,.16,0,.23.23,0,0,1,.12.08.42.42,0,0,1,.08.15.25.25,0,0,0,0,.08v1.07c0,.36-.07,1-.77,1s-.78-.47-.77-1l0-1.1c0-.05,0-.09,0-.12a.28.28,0,0,1,.08-.15.2.2,0,0,1,.12-.08.4.4,0,0,1,.17,0v0H7.94v0a.4.4,0,0,1,.17,0,.21.21,0,0,1,.11.08A.31.31,0,0,1,8.3,16v1.23a1,1,0,0,0,1.06,1,.94.94,0,0,0,.94-1l0-1.2a0,0,0,0,0,0,0,.28.28,0,0,1,.08-.15.21.21,0,0,1,.11-.08.4.4,0,0,1,.17,0v0h-.38Z"/><path class="cls-1" d="M10.07,15.76h.41a.38.38,0,0,0-.11.08.3.3,0,0,0-.08.17,0,0,0,0,0,0,0v0l0,1.2A1.1,1.1,0,0,1,10,18a1.2,1.2,0,0,0,.24-.84V16.1s0-.07,0-.09a.39.39,0,0,0-.09-.17.25.25,0,0,0-.1-.08h.09m-1.76,0H8.8a.25.25,0,0,0-.1.08.28.28,0,0,0-.09.17.53.53,0,0,0,0,.13l0,1.09a1.1,1.1,0,0,0,.25.79.69.69,0,0,0,.37.19.92.92,0,0,1-.6-.26.94.94,0,0,1-.25-.7v-1.2h0v0a.3.3,0,0,0-.08-.17.38.38,0,0,0-.11-.08h.16m1.76,0h-.3v0a.38.38,0,0,1,.16,0,.23.23,0,0,1,.12.08.53.53,0,0,1,.08.15s0,.05,0,.08v1.07c0,.36-.07,1-.77,1s-.78-.47-.77-1l0-1.1c0-.05,0-.09,0-.12a.28.28,0,0,1,.08-.15.2.2,0,0,1,.12-.08.4.4,0,0,1,.17,0v0H7.94v0a.4.4,0,0,1,.17,0,.21.21,0,0,1,.11.08A.36.36,0,0,1,8.3,16v1.23a1,1,0,0,0,1.06,1,.93.93,0,0,0,.94-1l0-1.2v0a.28.28,0,0,1,.08-.15.21.21,0,0,1,.11-.08.4.4,0,0,1,.17,0v0h-.62"/><path class="cls-1" d="M22.5,15.76a.4.4,0,0,1,.17,0,.21.21,0,0,1,.11.08.24.24,0,0,1,.08.15s0,.06,0,.1v1.57c-.33-.34-1.51-1.77-1.67-2h-.56v.06c.18,0,.33.13.33.22v1.09c0,.26,0,.34,0,.71,0,0,0,.08,0,.12a.25.25,0,0,1-.08.15.21.21,0,0,1-.11.07.4.4,0,0,1-.17,0v0h.84v0a.4.4,0,0,1-.17,0,.26.26,0,0,1-.11-.07.31.31,0,0,1-.08-.15h0V16.06h0l.87,1,1,1.18h0V16.06a.06.06,0,0,1,0,0,.26.26,0,0,1,.07-.15.4.4,0,0,1,.29-.11v0H22.5Z"/><path class="cls-1" d="M23.12,15.76a.35.35,0,0,0-.1.08.39.39,0,0,0-.09.17.11.11,0,0,1,0,0v2.1L22.79,18,22,17l-.41-.47c-.3-.34-.37-.42-.46-.54a.05.05,0,0,0,0,0h0s0,0,0,0v1.25c0,.13,0,.37,0,.61h0a.3.3,0,0,0,.08.17.38.38,0,0,0,.11.08h-.41a.35.35,0,0,0,.1-.08.39.39,0,0,0,.09-.17s0-.07,0-.12,0-.31,0-.41V16c0-.1-.1-.19-.24-.24h.41c.33.4,1.35,1.63,1.65,1.95a.05.05,0,0,0,0,0h0s0,0,0,0V16.12c0-.05,0-.08,0-.11a.3.3,0,0,0-.08-.17.28.28,0,0,0-.11-.08h.41m.22,0H22.5v0a.4.4,0,0,1,.17,0,.21.21,0,0,1,.11.08.24.24,0,0,1,.08.15s0,.06,0,.1v1.57c-.33-.34-1.51-1.77-1.67-2h-.56v.06c.18,0,.33.13.33.22v1.09c0,.26,0,.34,0,.71,0,0,0,.08,0,.12a.25.25,0,0,1-.08.15.21.21,0,0,1-.11.07.4.4,0,0,1-.17,0v0h.84v0a.4.4,0,0,1-.17,0,.26.26,0,0,1-.11-.07.31.31,0,0,1-.08-.15h0V16.06h0l.87,1,1,1.18h0V16a.53.53,0,0,1,.08-.15.4.4,0,0,1,.29-.11Z"/><path class="cls-1" d="M32.28,18.09a.58.58,0,0,1-.12-.14s0-.08-.06-.14l-.05-.11,0-.07,0-.08c-.23-.55-.53-1.23-.79-1.89h0q-.36.89-.72,1.74h0v0h0l-.18.43a.52.52,0,0,1-.07.11.62.62,0,0,1-.14.14.48.48,0,0,1-.17.05v0h.81v0a.48.48,0,0,1-.18-.06.25.25,0,0,1-.08-.1.28.28,0,0,1,0-.13s0-.05,0-.08l.21-.54c0-.05,0-.07.09-.07h.73c.07,0,.08,0,.09,0l.25.6a.25.25,0,0,1-.1.28,1.41,1.41,0,0,1-.29.05v0h1.19v0l-.17,0-.1-.05m-.9-1h-.65c-.05,0-.07,0-.07,0s0,0,0,0l.34-.81s0-.07,0-.07,0,0,0,.09l.32.78s0,0,0,.05,0,0-.06,0"/><path class="cls-1" d="M31.17,15.73c.26.65.54,1.3.78,1.84l0,.08,0,.07v0l0,.07h0l.07.14a.5.5,0,0,0,.13.15l.08.05h-.69s0,0,0,0a.27.27,0,0,0,.14-.23.37.37,0,0,0,0-.09l-.25-.61s0-.07-.08-.07a.08.08,0,0,0,0-.06.23.23,0,0,0,0-.07l-.32-.78c0-.06,0-.11-.09-.11s-.06,0-.08.08v0l-.33.8s0,0,0,.06a.06.06,0,0,0,0,.06.13.13,0,0,0-.1.09l-.21.55v0a.2.2,0,0,0,0,.07.33.33,0,0,0,0,.15.24.24,0,0,0,.09.11l0,0H30a.71.71,0,0,0,.15-.15.62.62,0,0,0,.08-.12l.18-.43v0h0c.22-.51.43-1,.65-1.57l.05-.12m0-.07h0q-.36.89-.72,1.74h0v0h0l-.18.43a.52.52,0,0,1-.07.11.62.62,0,0,1-.14.14.48.48,0,0,1-.17.05v0h.81v0a.48.48,0,0,1-.18-.06.25.25,0,0,1-.08-.1.28.28,0,0,1,0-.13s0-.05,0-.08l.21-.54c0-.05,0-.07.09-.07h.73c.07,0,.08,0,.1,0l.24.6a.25.25,0,0,1-.1.28,1.41,1.41,0,0,1-.29.05v0h1.19v0l-.17,0-.1-.05a.58.58,0,0,1-.12-.14s0-.08-.06-.14a.54.54,0,0,1-.05-.11l0-.07,0-.08c-.23-.55-.53-1.23-.79-1.89m-.46,1.46c-.05,0-.07,0-.07,0s0,0,0,0l.34-.81s0-.07,0-.07,0,0,0,.09l.32.78s0,0,0,.05,0,0-.06,0Z"/><path class="cls-1" d="M7.52,17.72a.85.85,0,0,1-.1.19.56.56,0,0,1-.25.18.2.2,0,0,1-.11,0h0c-.09,0-.6,0-.66,0s-.09-.09-.1-.35V16.13c0-.05,0-.09,0-.12a.28.28,0,0,1,.08-.15.21.21,0,0,1,.12-.07.35.35,0,0,1,.16,0v0H5.6v0a.35.35,0,0,1,.16,0,.25.25,0,0,1,.12.07A.31.31,0,0,1,6,16s0,.06,0,.09c0,.29,0,.59,0,.86s0,.6,0,.9a.13.13,0,0,0,0,.06.36.36,0,0,1-.08.15.37.37,0,0,1-.12.07.57.57,0,0,1-.16,0v0h2l0-.76h0a1.26,1.26,0,0,1-.07.28"/><path class="cls-1" d="M6.46,15.76l-.1.06a.38.38,0,0,0-.09.18,1.23,1.23,0,0,0,0,.13v1.62h0c0,.26,0,.35.12.38l.39,0H5.82l.09-.07A.31.31,0,0,0,6,17.93a.15.15,0,0,0,0-.07c0-.24,0-.48,0-.72v-1A.87.87,0,0,0,6,16a.38.38,0,0,0-.09-.18l-.09-.06h.64m1.13,1.9,0,.51H7.08l.11,0a.65.65,0,0,0,.26-.2,1,1,0,0,0,.11-.2l0-.08m-.92-1.94H5.6v0a.35.35,0,0,1,.16,0,.25.25,0,0,1,.12.07A.31.31,0,0,1,6,16a.37.37,0,0,0,0,.09V17c0,.3,0,.6,0,.9a.13.13,0,0,0,0,.06.36.36,0,0,1-.08.15.37.37,0,0,1-.12.07.57.57,0,0,1-.16,0v0h2l0-.76h0a1.26,1.26,0,0,1-.07.28.85.85,0,0,1-.1.19.56.56,0,0,1-.25.18.35.35,0,0,1-.11,0h0c-.1,0-.61,0-.67,0s-.09-.09-.1-.35V16.13c0-.05,0-.09,0-.12a.28.28,0,0,1,.08-.15.23.23,0,0,1,.11-.07.43.43,0,0,1,.17,0Z"/><path class="cls-1" d="M19.09,17.72a.85.85,0,0,1-.1.19.56.56,0,0,1-.25.18.2.2,0,0,1-.11,0h0c-.09,0-.6,0-.67,0s-.09-.09-.09-.35V16.13c0-.05,0-.09,0-.12a.28.28,0,0,1,.08-.15.19.19,0,0,1,.11-.07.43.43,0,0,1,.17,0v0H17.17v0a.35.35,0,0,1,.16,0,.19.19,0,0,1,.11.07.26.26,0,0,1,.09.15s0,.06,0,.09v1.76s0,0,0,.06a.29.29,0,0,1-.09.15.26.26,0,0,1-.11.07.57.57,0,0,1-.16,0v0h2l0-.76h-.05a1.26,1.26,0,0,1-.07.28"/><path class="cls-1" d="M18,15.76l-.09.06a.31.31,0,0,0-.09.18.39.39,0,0,0,0,.13v1.62h0c0,.26,0,.35.12.38l.39,0h-.95a.22.22,0,0,0,.09-.07.32.32,0,0,0,.1-.17.15.15,0,0,0,0-.07q0-.36,0-.72V17c0-.09,0-.19,0-.28V16.1a.87.87,0,0,0,0-.1.4.4,0,0,0-.1-.18l-.09-.06H18m1.14,1.9,0,.51h-.49l.11,0a.73.73,0,0,0,.26-.2,1,1,0,0,0,.11-.2l0-.08m-.92-1.94H17.17v0a.35.35,0,0,1,.16,0,.19.19,0,0,1,.11.07.26.26,0,0,1,.09.15s0,.06,0,.09v1.76s0,0,0,.06a.29.29,0,0,1-.09.15.26.26,0,0,1-.11.07.57.57,0,0,1-.16,0v0h2l0-.76h-.05a1.26,1.26,0,0,1-.07.28.85.85,0,0,1-.1.19.56.56,0,0,1-.25.18.35.35,0,0,1-.11,0h0c-.09,0-.6,0-.67,0s-.09-.09-.09-.35V16.13c0-.05,0-.09,0-.12a.28.28,0,0,1,.08-.15.19.19,0,0,1,.11-.07.43.43,0,0,1,.17,0Z"/><path class="cls-1" d="M34.67,17.44a2,2,0,0,1-.08.28.85.85,0,0,1-.1.19.53.53,0,0,1-.24.18l-.11,0h0c-.09,0-.6,0-.67,0s-.09-.09-.09-.35,0-.85,0-1.17v-.45c0-.05,0-.09,0-.12a.38.38,0,0,1,.09-.15.19.19,0,0,1,.11-.07.4.4,0,0,1,.17,0v0H32.68v0l.15,0a.25.25,0,0,1,.12.08A.32.32,0,0,1,33,16s0,.06,0,.09v1.76a.13.13,0,0,0,0,.06.38.38,0,0,1-.09.15.24.24,0,0,1-.12.07.49.49,0,0,1-.15,0v0h2l0-.76Z"/><path class="cls-1" d="M33.53,15.76l-.09.06a.4.4,0,0,0-.1.18,1.05,1.05,0,0,1,0,.13v1.62h0c0,.26,0,.35.13.38l.38,0h-.94L33,18.1a.32.32,0,0,0,.1-.17.2.2,0,0,1,0-.07V16.68c0-.19,0-.39,0-.58s0-.08,0-.1a.4.4,0,0,0-.1-.18l-.09-.06h.64m1.13,1.9v.51h-.5l.11,0a.76.76,0,0,0,.27-.2.93.93,0,0,0,.1-.2l0-.08m-.91-1.94H32.68v0a.31.31,0,0,1,.15,0,.19.19,0,0,1,.12.07A.32.32,0,0,1,33,16s0,.06,0,.09v1.76a.13.13,0,0,0,0,.06.38.38,0,0,1-.09.15.24.24,0,0,1-.12.07.49.49,0,0,1-.15,0v0h2l0-.76h0a2,2,0,0,1-.08.28.85.85,0,0,1-.1.19.59.59,0,0,1-.24.18.35.35,0,0,1-.11,0h0c-.09,0-.6,0-.67,0s-.09-.09-.09-.35,0-.85,0-1.18v-.44c0-.05,0-.09,0-.12a.38.38,0,0,1,.09-.15.19.19,0,0,1,.11-.07.4.4,0,0,1,.17,0Z"/><path class="cls-1" d="M16.61,17.72a.85.85,0,0,1-.1.19.56.56,0,0,1-.25.18l-.14,0h-.66c-.18,0-.22,0-.23-.15s0-.7,0-1h.52A.65.65,0,0,1,16,17a.28.28,0,0,1,.15.08.53.53,0,0,1,.08.15.66.66,0,0,1,.05.23h0v-1h0a2,2,0,0,1,0,.21.35.35,0,0,1-.08.13.29.29,0,0,1-.13.08l-.25,0h-.53V15.79h1a.37.37,0,0,1,.18.08.52.52,0,0,1,.14.16.69.69,0,0,1,.07.23h0l0-.55H14.54v0a.43.43,0,0,1,.17,0,.21.21,0,0,1,.11.08.19.19,0,0,1,.07.12c0,.32,0,.65,0,1s0,.65,0,1a.24.24,0,0,1-.07.13l-.11.08-.17,0v0H16.7l0-.76h-.05a2.26,2.26,0,0,1-.07.28"/><path class="cls-1" d="M14.75,15.75h.43v1.12a0,0,0,0,0,0,0,.06.06,0,0,0,0,0v.4c0,.29,0,.57,0,.63a.19.19,0,0,0,.17.19h-.43a0,0,0,0,0,0,0h-.15l.1-.08a.31.31,0,0,0,.07-.14v0c0-.19,0-.39,0-.59v-.76c0-.19,0-.39,0-.59h0a.26.26,0,0,0-.07-.14l-.11-.09m1.81,0V16a.64.64,0,0,0-.16-.17.36.36,0,0,0-.15-.08h.31m-.32.92v.52h0a.69.69,0,0,0-.1-.17.62.62,0,0,0-.16-.1h0l.07,0a.32.32,0,0,0,.15-.09.38.38,0,0,0,.09-.13m.44,1,0,.51h-.49l.11,0a.61.61,0,0,0,.26-.19,1,1,0,0,0,.11-.2l0-.08m-1.94-1.95h-.2v0a.43.43,0,0,1,.17,0,.21.21,0,0,1,.11.08.19.19,0,0,1,.07.12c0,.32,0,.65,0,1s0,.65,0,1a.24.24,0,0,1-.07.13l-.11.08-.17,0v0H16.7l0-.76h-.05a2.26,2.26,0,0,1-.07.28,1.24,1.24,0,0,1-.1.2.62.62,0,0,1-.25.17l-.14,0h-.66c-.18,0-.22,0-.23-.15s0-.7,0-1h.52A.65.65,0,0,1,16,17a.28.28,0,0,1,.15.08.71.71,0,0,1,.08.15.66.66,0,0,1,.05.23h0v-1h0a2,2,0,0,1,0,.21.35.35,0,0,1-.08.13.29.29,0,0,1-.13.08l-.25,0h-.53V15.79h1a.37.37,0,0,1,.18.08.52.52,0,0,1,.14.16.69.69,0,0,1,.07.23h0l0-.55H14.74"/></g></g></svg>