<svg id="Layer_1" enable-background="new 0 0 512 512" height="512" viewBox="0 0 512 512" width="512" xmlns="http://www.w3.org/2000/svg"><path d="m256 .836c-141.159 0-256 114.841-256 256 12.87 339.152 499.182 339.06 512-.003 0-141.156-114.841-255.997-256-255.997zm-226 256c-2.18-165.031 179.49-277.498 325.743-202.76l-32.933 57.042-59.31-34.242c-4.641-2.679-10.358-2.679-15 0l-144.6 83.483c-4.641 2.679-7.5 7.631-7.5 12.99v166.973c0 5.359 2.859 10.311 7.5 12.99l59.31 34.242-32.912 57.006c-60.443-40.605-100.298-109.596-100.298-187.724zm220.508-20.488-109.109-62.998 42.3-24.421 87.961 50.783zm-15 25.981-57.299 99.244-51.81-29.911v-132.331zm5.492 50.487v85.008l-36.81-21.251zm30-47.316 42.3-24.424v14.045c.735 19.875 29.267 19.871 30 0v-31.366l42.3-24.424v132.331l-114.6 66.162zm57.303-67.728-15.662-9.042 21.149-36.631 36.81 21.251zm-41.642-24.042-72.96-42.122 42.299-24.421 51.81 29.912zm-30.661 309.106c-35.783 0-69.642-8.373-99.743-23.241l32.933-57.042 59.31 34.242c4.642 2.679 10.359 2.679 15 0l144.6-83.483c4.641-2.679 7.5-7.631 7.5-12.99v-166.973c0-5.359-2.859-10.311-7.5-12.99l-59.309-34.242 32.913-57.006c183.209 122.508 97.631 412.814-125.704 413.725z"/></svg>