<svg xmlns="http://www.w3.org/2000/svg" viewBox="0 0 200 200"><defs><style>.cls-1{isolation:isolate;}.cls-2{fill:#fff;}.cls-3{opacity:0.92;mix-blend-mode:multiply;font-size:25.3px;fill:#b7b6b6;font-family:Raleway-Regular, Raleway;}.cls-4{letter-spacing:-0.02em;}.cls-5{letter-spacing:-0.03em;}.cls-6{letter-spacing:-0.01em;}.cls-7{letter-spacing:-0.01em;}.cls-8{fill:#e86243;}</style></defs><title>Mock_Up_Nogal_Conecta_Iconos</title><g class="cls-1"><g id="Capa_2" data-name="Capa 2"><path class="cls-2" d="M78.34,67H70.09v37h59.82V67H78.34ZM100,100.55a15.06,15.06,0,1,1,15.06-15.06A15.08,15.08,0,0,1,100,100.55Z"/><polygon class="cls-2" points="113.33 56.74 86.21 56.74 84.11 60.34 115.89 60.34 113.33 56.74"/><path class="cls-2" d="M100,5a95,95,0,1,0,95,95A95,95,0,0,0,100,5Zm36.55,102.31a3.32,3.32,0,0,1-3.32,3.33H66.77a3.33,3.33,0,0,1-3.32-3.33V63.67a3.33,3.33,0,0,1,3.32-3.33h9.66l5-8.59a3.33,3.33,0,0,1,2.88-1.66H115a3.34,3.34,0,0,1,2.71,1.4L124,60.34h9.19a3.32,3.32,0,0,1,3.32,3.33Z"/><path class="cls-2" d="M100,77.07a8.42,8.42,0,1,0,8.41,8.42A8.42,8.42,0,0,0,100,77.07Z"/><text class="cls-3" transform="translate(46.39 151.91)">Subi<tspan class="cls-4" x="51.5" y="0">r</tspan><tspan x="59.77" y="0"> </tspan><tspan class="cls-5" x="66.22" y="0">f</tspan><tspan class="cls-6" x="73.92" y="0">o</tspan><tspan class="cls-7" x="88.79" y="0">t</tspan><tspan x="96.93" y="0">o</tspan></text><rect class="cls-8" x="145.39" y="42.52" width="16.48" height="8.74" transform="translate(11.84 122.37) rotate(-45)"/><rect class="cls-8" x="160.12" y="33.23" width="5.6" height="8.73" transform="translate(21.13 126.21) rotate(-45)"/><polygon class="cls-8" points="143.7 50.64 143.17 57.35 149.88 56.81 143.7 50.64"/></g></g></svg>